<svg width="23" height="27" viewBox="0 0 23 27" fill="none" xmlns="http://www.w3.org/2000/svg">
<path d="M16.6959 0C16.7587 0 16.8215 0 16.8879 0C17.0421 1.9041 16.3153 3.32683 15.432 4.35713C14.5653 5.38032 13.3785 6.37268 11.459 6.22211C11.331 4.34528 12.0589 3.02806 12.941 2.00013C13.7591 1.04216 15.2589 0.189698 16.6959 0Z" fill="black"/>
<path d="M22.5063 19.8187C22.5063 19.8377 22.5063 19.8543 22.5063 19.8721C21.9668 21.5059 21.1973 22.9061 20.2583 24.2055C19.4011 25.3852 18.3507 26.9727 16.475 26.9727C14.8543 26.9727 13.7778 25.9306 12.1167 25.9021C10.3596 25.8737 9.39336 26.7736 7.78686 27C7.60309 27 7.41932 27 7.2391 27C6.05942 26.8293 5.10737 25.895 4.41378 25.0532C2.3686 22.5658 0.788173 19.3528 0.494141 15.2411C0.494141 14.838 0.494141 14.436 0.494141 14.0329C0.61863 11.0902 2.04848 8.69767 3.94902 7.53814C4.95205 6.92162 6.33092 6.39639 7.86629 6.63115C8.52431 6.73311 9.19655 6.95838 9.7858 7.18127C10.3442 7.39587 11.0426 7.77645 11.7041 7.75629C12.1523 7.74325 12.5981 7.50969 13.0498 7.34489C14.3729 6.86708 15.67 6.31933 17.3797 6.57661C19.4343 6.88724 20.8926 7.80016 21.7937 9.20867C20.0556 10.3149 18.6815 11.9818 18.9162 14.8285C19.1249 17.4143 20.6282 18.9272 22.5063 19.8187Z" fill="black"/>
</svg>
