<svg width="17" height="10" viewBox="0 0 17 10" fill="none" xmlns="http://www.w3.org/2000/svg">
<path d="M8.63213 9.46747L15.7716 2.37033C15.9369 2.20618 16.0283 1.98667 16.029 1.75233C16.0297 1.51798 15.9396 1.29793 15.7753 1.1328L15.2528 0.607016C14.9123 0.264884 14.3573 0.263228 14.0153 0.603324L8.01995 6.56297L2.05369 0.560998C1.88941 0.395867 1.67003 0.304309 1.43582 0.30361C1.20135 0.30291 0.981425 0.393158 0.816034 0.557305L0.290511 1.07996C0.125249 1.24424 0.0338215 1.46362 0.0331222 1.69796C0.0324229 1.93231 0.122539 2.15236 0.286818 2.31749L7.39031 9.46376C7.55511 9.62928 7.77553 9.72059 8.01013 9.72077C8.24565 9.72199 8.46648 9.632 8.63213 9.46747Z" fill="black"/>
</svg>
