<svg width="12" height="21" viewBox="0 0 12 21" fill="none" xmlns="http://www.w3.org/2000/svg">
<path d="M3.29679 11.4647C3.21437 11.4647 1.40113 11.4647 0.576938 11.4647C0.137366 11.4647 0 11.3122 0 10.9309C0 9.91408 0 8.87183 0 7.855C0 7.44827 0.164839 7.32117 0.576938 7.32117H3.29679C3.29679 7.2449 3.29679 5.7705 3.29679 5.08414C3.29679 4.06731 3.4891 3.10133 4.03856 2.2116C4.6155 1.29646 5.4397 0.686359 6.48368 0.330469C7.17051 0.101683 7.85734 0 8.59912 0H11.2915C11.6761 0 11.841 0.152524 11.841 0.508414V3.40638C11.841 3.76227 11.6761 3.91479 11.2915 3.91479C10.5497 3.91479 9.80794 3.91479 9.06616 3.94021C8.32439 3.94021 7.93976 4.27068 7.93976 4.98246C7.91229 5.74508 7.93976 6.48228 7.93976 7.27033H11.1267C11.5662 7.27033 11.7311 7.42285 11.7311 7.82958V10.9055C11.7311 11.3122 11.5937 11.4393 11.1267 11.4393C10.1376 11.4393 8.02218 11.4393 7.93976 11.4393V19.7265C7.93976 20.1586 7.80239 20.3112 7.30788 20.3112C6.154 20.3112 5.0276 20.3112 3.87372 20.3112C3.46163 20.3112 3.29679 20.1586 3.29679 19.7773C3.29679 17.1081 3.29679 11.541 3.29679 11.4647Z" fill="black"/>
</svg>
