<svg width="17" height="17" viewBox="0 0 17 17" fill="none" xmlns="http://www.w3.org/2000/svg">
<g clip-path="url(#clip0_42_2218)">
<path d="M0.708333 13.6356H2.64633C2.79837 13.0762 3.13025 12.5824 3.59077 12.2303C4.0513 11.8783 4.61488 11.6875 5.19456 11.6875C5.77425 11.6875 6.33783 11.8783 6.79835 12.2303C7.25888 12.5824 7.59076 13.0762 7.74279 13.6356H16.2917C16.4795 13.6356 16.6597 13.7103 16.7925 13.8431C16.9254 13.9759 17 14.1561 17 14.344C17 14.5318 16.9254 14.712 16.7925 14.8448C16.6597 14.9777 16.4795 15.0523 16.2917 15.0523H7.74279C7.59076 15.6117 7.25888 16.1055 6.79835 16.4576C6.33783 16.8096 5.77425 17.0004 5.19456 17.0004C4.61488 17.0004 4.0513 16.8096 3.59077 16.4576C3.13025 16.1055 2.79837 15.6117 2.64633 15.0523H0.708333C0.520472 15.0523 0.340304 14.9777 0.207466 14.8448C0.0746278 14.712 0 14.5318 0 14.344C0 14.1561 0.0746278 13.9759 0.207466 13.8431C0.340304 13.7103 0.520472 13.6356 0.708333 13.6356ZM5.19421 15.5835C5.43937 15.5835 5.67904 15.5108 5.88288 15.3746C6.08673 15.2384 6.24561 15.0448 6.33943 14.8183C6.43325 14.5918 6.4578 14.3426 6.40997 14.1021C6.36214 13.8617 6.24408 13.6408 6.07073 13.4674C5.89737 13.2941 5.67649 13.176 5.43604 13.1282C5.19558 13.0804 4.94634 13.1049 4.71984 13.1987C4.49334 13.2926 4.29974 13.4514 4.16353 13.6553C4.02733 13.8591 3.95463 14.0988 3.95463 14.344C3.955 14.6726 4.08572 14.9877 4.3181 15.2201C4.55049 15.4525 4.86557 15.5832 5.19421 15.5835Z" fill="#2B2B2B"/>
<path d="M16.2917 9.20834H14.3537C14.2019 9.76787 13.8701 10.2619 13.4096 10.6141C12.9492 10.9663 12.3855 11.1571 11.8058 11.1571C11.226 11.1571 10.6624 10.9663 10.2019 10.6141C9.74144 10.2619 9.4097 9.76787 9.25792 9.20834H0.708333C0.520472 9.20834 0.340304 9.13372 0.207466 9.00088C0.0746278 8.86804 0 8.68787 0 8.50001C0 8.31215 0.0746278 8.13198 0.207466 7.99914C0.340304 7.86631 0.520472 7.79168 0.708333 7.79168H9.25792C9.4097 7.23215 9.74144 6.73815 10.2019 6.38594C10.6624 6.03373 11.226 5.84289 11.8058 5.84289C12.3855 5.84289 12.9492 6.03373 13.4096 6.38594C13.8701 6.73815 14.2019 7.23215 14.3537 7.79168H16.2917C16.4795 7.79168 16.6597 7.86631 16.7925 7.99914C16.9254 8.13198 17 8.31215 17 8.50001C17 8.68787 16.9254 8.86804 16.7925 9.00088C16.6597 9.13372 16.4795 9.20834 16.2917 9.20834ZM11.8058 7.26043C11.5606 7.26043 11.321 7.33313 11.1171 7.46934C10.9133 7.60554 10.7544 7.79914 10.6606 8.02564C10.5667 8.25215 10.5422 8.50139 10.59 8.74184C10.6379 8.9823 10.7559 9.20317 10.9293 9.37653C11.1026 9.54989 11.3235 9.66795 11.564 9.71578C11.8044 9.76361 12.0537 9.73906 12.2802 9.64524C12.5067 9.55142 12.7003 9.39254 12.8365 9.18869C12.9727 8.98484 13.0454 8.74518 13.0454 8.50001C13.045 8.17137 12.9143 7.85629 12.6819 7.62391C12.4495 7.39152 12.1344 7.2608 11.8058 7.26043Z" fill="#2B2B2B"/>
<path d="M16.2917 3.36458H7.74279C7.59076 3.92398 7.25888 4.4178 6.79835 4.76987C6.33783 5.12193 5.77425 5.31268 5.19456 5.31268C4.61488 5.31268 4.0513 5.12193 3.59077 4.76987C3.13025 4.4178 2.79837 3.92398 2.64633 3.36458H0.708333C0.520472 3.36458 0.340304 3.28996 0.207466 3.15712C0.0746278 3.02428 0 2.84411 0 2.65625C0 2.46839 0.0746278 2.28822 0.207466 2.15538C0.340304 2.02254 0.520472 1.94792 0.708333 1.94792H2.64633C2.79837 1.38852 3.13025 0.894699 3.59077 0.542631C4.0513 0.190564 4.61488 -0.000185013 5.19456 -0.000185013C5.77425 -0.000185013 6.33783 0.190564 6.79835 0.542631C7.25888 0.894699 7.59076 1.38852 7.74279 1.94792H16.2917C16.4795 1.94792 16.6597 2.02254 16.7925 2.15538C16.9254 2.28822 17 2.46839 17 2.65625C17 2.84411 16.9254 3.02428 16.7925 3.15712C16.6597 3.28996 16.4795 3.36458 16.2917 3.36458ZM5.19421 1.41667C4.94904 1.41667 4.70938 1.48937 4.50553 1.62557C4.30168 1.76178 4.1428 1.95538 4.04898 2.18188C3.95516 2.40838 3.93061 2.65762 3.97844 2.89808C4.02627 3.13854 4.14433 3.35941 4.31769 3.53277C4.49105 3.70613 4.71192 3.82418 4.95238 3.87201C5.19283 3.91984 5.44207 3.8953 5.66858 3.80147C5.89508 3.70765 6.08868 3.54877 6.22488 3.34492C6.36109 3.14108 6.43379 2.90142 6.43379 2.65625C6.43323 2.32766 6.30245 2.0127 6.07011 1.78035C5.83776 1.54801 5.52279 1.41723 5.19421 1.41667Z" fill="#2B2B2B"/>
</g>
<defs>
<clipPath id="clip0_42_2218">
<rect width="17" height="17" fill="white" transform="matrix(1 0 0 -1 0 17)"/>
</clipPath>
</defs>
</svg>
