<svg width="26" height="26" viewBox="0 0 26 26" fill="none" xmlns="http://www.w3.org/2000/svg">
<g clip-path="url(#clip0_42_7672)">
<path d="M25.0185 10.7397L14.4133 10.7392C13.945 10.7392 13.5654 11.1187 13.5654 11.587V14.9749C13.5654 15.4431 13.945 15.8227 14.4133 15.8227H20.3855C19.7315 17.5199 18.5109 18.9412 16.9537 19.8443L19.5002 24.2526C23.5851 21.8901 26.0002 17.7448 26.0002 13.1046C26.0002 12.4438 25.9515 11.9715 25.8541 11.4397C25.78 11.0356 25.4292 10.7397 25.0185 10.7397Z" fill="#167EE6"/>
<path d="M12.9996 20.913C10.077 20.913 7.52552 19.3162 6.15519 16.9532L1.74707 19.4939C3.99033 23.3819 8.19268 26 12.9996 26C15.3578 26 17.5828 25.3651 19.4996 24.2586V24.2526L16.9531 19.8442C15.7883 20.5198 14.4404 20.913 12.9996 20.913Z" fill="#12B347"/>
<path d="M19.5 24.2586V24.2526L16.9535 19.8442C15.7887 20.5198 14.4408 20.913 13 20.913V26C15.3581 26 17.5833 25.3651 19.5 24.2586Z" fill="#0F993E"/>
<path d="M5.08696 13C5.08696 11.5594 5.48011 10.2116 6.15555 9.04683L1.74743 6.50604C0.634867 8.41679 0 10.6358 0 13C0 15.3642 0.634867 17.5832 1.74743 19.494L6.15555 16.9532C5.48011 15.7884 5.08696 14.4406 5.08696 13Z" fill="#FFD500"/>
<path d="M12.9996 5.08696C14.9055 5.08696 16.6561 5.76418 18.0235 6.89066C18.3609 7.16853 18.8512 7.14848 19.1602 6.83947L21.5606 4.43904C21.9112 4.08845 21.8862 3.51457 21.5117 3.18967C19.2207 1.20214 16.2398 0 12.9996 0C8.19268 0 3.99033 2.61813 1.74707 6.50604L6.15519 9.04683C7.52552 6.68383 10.077 5.08696 12.9996 5.08696Z" fill="#FF4B26"/>
<path d="M18.0239 6.89066C18.3612 7.16853 18.8516 7.14848 19.1605 6.83947L21.561 4.43904C21.9115 4.08845 21.8865 3.51457 21.5121 3.18967C19.2211 1.20209 16.2402 0 13 0V5.08696C14.9058 5.08696 16.6565 5.76418 18.0239 6.89066Z" fill="#D93F21"/>
</g>
<defs>
<clipPath id="clip0_42_7672">
<rect width="26" height="26" fill="white"/>
</clipPath>
</defs>
</svg>
