<svg width="20" height="20" viewBox="0 0 20 20" fill="none" xmlns="http://www.w3.org/2000/svg">
<path d="M9.99997 0C4.48597 0 0 4.48597 0 9.99997C0 15.514 4.48597 19.9999 9.99997 19.9999C15.514 19.9999 19.9999 15.514 19.9999 9.99997C19.9999 4.48597 15.514 0 9.99997 0ZM19.2061 9.60748H17.1683C17.1164 7.71397 16.6892 5.9121 15.9367 4.37267C16.2119 4.16889 16.4777 3.94982 16.7336 3.71631C18.1885 5.27442 19.1103 7.33581 19.2061 9.60748ZM12.3489 3.09706C12.0981 2.23278 11.8063 1.54298 11.4807 1.0353C12.8478 1.50494 14.046 2.60974 14.9163 4.121C14.2539 4.54035 13.5431 4.87104 12.7992 5.10732C12.6765 4.38262 12.5259 3.70689 12.3489 3.09706ZM12.0388 5.31351C11.3771 5.4624 10.6943 5.53907 10.0002 5.53907C9.30593 5.53907 8.6231 5.46235 7.96124 5.31341C8.4414 2.43468 9.31363 0.784993 9.99997 0.784993C10.6864 0.784993 11.5586 2.43468 12.0388 5.31351ZM7.60616 9.60748C7.62087 8.31077 7.70795 7.13355 7.84538 6.09196C8.54554 6.24514 9.267 6.32406 10.0002 6.32406C10.7333 6.32406 11.4546 6.24514 12.1546 6.09202C12.292 7.1336 12.3791 8.31083 12.3938 9.60742H7.60616V9.60748ZM12.3938 10.3925C12.3791 11.6893 12.292 12.8666 12.1546 13.9083C11.4546 13.7552 10.7332 13.6763 10.0002 13.6763C9.26705 13.6763 8.54559 13.7552 7.84543 13.9084C7.70795 12.8667 7.62087 11.6893 7.60616 10.3925H12.3938ZM8.51937 1.0353C8.19376 1.54298 7.902 2.23278 7.65112 3.09706C7.47408 3.70689 7.32351 4.38251 7.2009 5.10716C6.45704 4.87088 5.74631 4.54024 5.08388 4.1209C5.95412 2.60968 7.15228 1.50494 8.51937 1.0353ZM7.08153 5.89279C6.92516 7.04877 6.83609 8.30612 6.82112 9.60753H3.61699C3.66869 7.83763 4.06794 6.19527 4.71896 4.81923C5.45785 5.28028 6.25121 5.64049 7.08153 5.89279ZM6.82117 10.3925C6.83614 11.694 6.92521 12.9515 7.08163 14.1076C6.25137 14.3599 5.458 14.72 4.71912 15.1811C4.06799 13.805 3.66869 12.1625 3.61699 10.3925H6.82117ZM7.20095 14.8932C7.32357 15.6177 7.47413 16.2932 7.65112 16.9029C7.902 17.7672 8.19376 18.457 8.51937 18.9647C7.15239 18.4951 5.95428 17.3904 5.08403 15.8794C5.74641 15.4601 6.45709 15.1295 7.20095 14.8932ZM7.96129 14.687C8.6231 14.5381 9.30593 14.4614 10.0001 14.4614C10.6942 14.4614 11.377 14.538 12.0387 14.6869C11.5584 17.5655 10.6863 19.215 9.99997 19.215C9.31363 19.215 8.4415 17.5655 7.96129 14.687ZM11.4806 18.9647C11.8062 18.457 12.098 17.7672 12.3489 16.903C12.5259 16.2933 12.6765 15.6177 12.799 14.8931C13.5429 15.1294 14.2536 15.4601 14.916 15.8794C14.0458 17.3904 12.8477 18.4951 11.4806 18.9647ZM12.9184 14.1075C13.0748 12.9515 13.1639 11.694 13.1788 10.3925H16.383C16.3313 12.1625 15.932 13.8049 15.2809 15.181C14.5421 14.72 13.7487 14.3598 12.9184 14.1075ZM13.1788 9.60748C13.1639 8.30612 13.0748 7.04877 12.9185 5.89284C13.7488 5.64059 14.5423 5.28039 15.2811 4.81923C15.9321 6.19527 16.3313 7.83758 16.383 9.60748H13.1788ZM16.1736 3.16483C15.9759 3.3436 15.7716 3.51284 15.5614 3.67251C15.4213 3.43372 15.273 3.20251 15.1161 2.98015C14.7796 2.50345 14.4147 2.08007 14.0267 1.71259C14.8108 2.09515 15.533 2.58561 16.1736 3.16483ZM4.88391 2.98015C4.72691 3.20251 4.5786 3.43377 4.43856 3.67251C4.22834 3.51284 4.02403 3.34365 3.82627 3.16488C4.46692 2.58566 5.18912 2.09515 5.97333 1.71259C5.58528 2.08002 5.22041 2.50345 4.88391 2.98015ZM3.26636 3.71637C3.52226 3.94982 3.78811 4.16889 4.06333 4.37262C3.31089 5.91204 2.88365 7.71392 2.83168 9.60748H0.793942C0.889659 7.33581 1.8115 5.27442 3.26636 3.71637ZM0.793942 10.3925H2.83168C2.88365 12.2861 3.31094 14.0882 4.06344 15.6276C3.78827 15.8314 3.52242 16.0504 3.26657 16.2838C1.81155 14.7257 0.889659 12.6643 0.793942 10.3925ZM3.82653 16.8353C4.02424 16.6566 4.22855 16.4874 4.43872 16.3278C4.57876 16.5664 4.72702 16.7976 4.88391 17.0199C5.22036 17.4966 5.58523 17.92 5.97327 18.2874C5.18922 17.9049 4.46713 17.4144 3.82653 16.8353ZM15.116 17.0199C15.273 16.7976 15.4212 16.5664 15.5613 16.3278C15.7715 16.4875 15.9758 16.6567 16.1734 16.8354C15.5329 17.4145 14.8108 17.905 14.0267 18.2875C14.4147 17.9199 14.7796 17.4966 15.116 17.0199ZM16.7334 16.2839C16.4775 16.0504 16.2117 15.8314 15.9366 15.6276C16.6891 14.0882 17.1164 12.2861 17.1683 10.3925H19.2061C19.1103 12.6643 18.1884 14.7258 16.7334 16.2839Z" fill="#464646"/>
</svg>
