<svg width="13" height="17" viewBox="0 0 13 17" fill="none" xmlns="http://www.w3.org/2000/svg">
<path d="M6.08559 16.7782C6.17796 16.9168 6.33349 17 6.5 17C6.66651 17 6.82204 16.9168 6.91441 16.7782C8.09309 15.0102 9.82918 12.8268 11.039 10.6061C12.0063 8.83054 12.4766 7.31618 12.4766 5.97656C12.4766 2.68109 9.79548 0 6.5 0C3.20452 0 0.523438 2.68109 0.523438 5.97656C0.523438 7.31618 0.993693 8.83054 1.96103 10.6061C3.16993 12.8251 4.90934 15.0139 6.08559 16.7782ZM6.5 0.996094C9.24623 0.996094 11.4805 3.23033 11.4805 5.97656C11.4805 7.14545 11.0499 8.50392 10.1643 10.1296C9.12145 12.0437 7.63336 13.9854 6.5 15.6177C5.36681 13.9856 3.87861 12.0438 2.83574 10.1296C1.95008 8.50392 1.51953 7.14545 1.51953 5.97656C1.51953 3.23033 3.75377 0.996094 6.5 0.996094Z" fill="black"/>
<path d="M6.5 8.96484C8.14774 8.96484 9.48828 7.6243 9.48828 5.97656C9.48828 4.32882 8.14774 2.98828 6.5 2.98828C4.85226 2.98828 3.51172 4.32882 3.51172 5.97656C3.51172 7.6243 4.85226 8.96484 6.5 8.96484ZM6.5 3.98438C7.59849 3.98438 8.49219 4.87807 8.49219 5.97656C8.49219 7.07505 7.59849 7.96875 6.5 7.96875C5.40151 7.96875 4.50781 7.07505 4.50781 5.97656C4.50781 4.87807 5.40151 3.98438 6.5 3.98438Z" fill="black"/>
</svg>
