<svg width="24" height="24" viewBox="0 0 24 24" fill="none" xmlns="http://www.w3.org/2000/svg">
<g clip-path="url(#clip0_42_1219)">
<path d="M14.3918 19.0096C19.6894 19.0096 24 14.7607 24 9.53678C24 4.31288 19.6894 0.0619354 14.3918 0.0619354C9.09432 0.0619354 4.78468 4.31189 4.78468 9.53579C4.78468 14.7597 9.09432 19.0096 14.3918 19.0096ZM14.3918 2.05161C18.593 2.05161 22.0103 5.4092 22.0103 9.53579C22.0103 13.6614 18.5921 17.019 14.3918 17.019C10.1916 17.019 6.77436 13.6614 6.77436 9.53579C6.77436 5.4092 10.1906 2.05161 14.3918 2.05161Z" fill="#888888"/>
<path d="M0.994283 23.9381C1.24598 23.9381 1.49867 23.8426 1.69167 23.6526L9.11317 16.3465C9.50513 15.9605 9.50911 15.3307 9.1251 14.9398C8.73911 14.5478 8.10937 14.5428 7.7184 14.9278L0.296901 22.2339C-0.0950661 22.6199 -0.0990448 23.2497 0.284964 23.6406C0.479952 23.8386 0.73662 23.9381 0.994283 23.9381Z" fill="#888888"/>
</g>
<defs>
<clipPath id="clip0_42_1219">
<rect width="24" height="24" fill="white" transform="matrix(-1 0 0 1 24 0)"/>
</clipPath>
</defs>
</svg>
