<svg width="17" height="11" viewBox="0 0 17 11" fill="none" xmlns="http://www.w3.org/2000/svg">
<path d="M16.7521 4.87207L16.7513 4.87123L12.3352 0.25832C12.0043 -0.0872489 11.4692 -0.0859629 11.1399 0.261336C10.8106 0.60859 10.8119 1.17026 11.1427 1.51587L14.1077 4.6129H0.84517C0.378383 4.6129 0 5.01006 0 5.5C0 5.98994 0.378383 6.3871 0.84517 6.3871H14.1077L11.1427 9.48413C10.8119 9.82974 10.8106 10.3914 11.1399 10.7387C11.4692 11.086 12.0044 11.0872 12.3352 10.7417L16.7514 6.12877L16.7521 6.12793C17.0832 5.78117 17.0821 5.21768 16.7521 4.87207Z" fill="black"/>
</svg>
