<svg width="22" height="22" viewBox="0 0 22 22" fill="none" xmlns="http://www.w3.org/2000/svg">
<mask id="path-1-outside-1_42_7620" maskUnits="userSpaceOnUse" x="0" y="0.00891113" width="22" height="22" fill="black">
<rect fill="white" y="0.00891113" width="22" height="22"/>
<path d="M19.9772 12.8529L18.7501 13.0093C18.5938 13.0288 18.4687 13.1382 18.4218 13.2867C18.2772 13.7518 18.0896 14.2051 17.863 14.635C17.7887 14.7718 17.8004 14.9398 17.8981 15.0649L18.6563 16.0419C19.0197 16.5108 18.9767 17.1791 18.5586 17.6011L17.6011 18.5547C17.1791 18.9768 16.5108 19.0197 16.0418 18.6563L15.0648 17.8982C14.9398 17.8044 14.7717 17.7887 14.635 17.863C14.2051 18.0896 13.7518 18.2772 13.2867 18.4218C13.1382 18.4687 13.0288 18.5938 13.0092 18.7501L12.8529 19.9772C12.7748 20.5634 12.2745 21.0089 11.6805 21.0089H10.3284C9.73435 21.0089 9.23022 20.5673 9.15597 19.9772L8.99965 18.7501C8.98011 18.5938 8.87069 18.4687 8.72218 18.4218C8.25713 18.2772 7.80381 18.0896 7.37393 17.863C7.23715 17.7887 7.0691 17.8005 6.94405 17.8982L5.96705 18.6563C5.49809 19.0197 4.82983 18.9768 4.40776 18.5586L3.45422 17.6011C3.03215 17.1791 2.98917 16.5108 3.35261 16.0419L4.11076 15.0649C4.20455 14.9398 4.22018 14.7718 4.14593 14.635C3.91927 14.2051 3.73168 13.7518 3.58709 13.2867C3.54019 13.1382 3.41514 13.0288 3.25882 13.0093L2.03171 12.8529C1.44551 12.7748 1 12.2746 1 11.6805V10.3284C1 9.73437 1.4416 9.23024 2.03171 9.15599L3.25882 8.99967C3.41514 8.98013 3.54019 8.8707 3.58709 8.7222C3.73168 8.25715 3.91927 7.80382 4.14593 7.37394C4.22018 7.23716 4.20846 7.06912 4.11076 6.94406L3.35261 5.96707C2.98917 5.49811 3.03215 4.82984 3.45031 4.40778L4.40776 3.45032C4.82983 3.02826 5.49809 2.98918 5.96705 3.35262L6.94405 4.11077C7.0691 4.20457 7.23715 4.2202 7.37393 4.14594C7.80381 3.91928 8.25713 3.7317 8.72218 3.5871C8.87069 3.54021 8.98011 3.41515 8.99965 3.25883L9.15597 2.03172C9.23022 1.44162 9.73435 1.00002 10.3284 1.00002H11.6805C12.2745 1.00002 12.7787 1.44162 12.8529 2.03172L13.0092 3.25883C13.0288 3.41515 13.1382 3.54021 13.2867 3.5871C13.7518 3.7317 14.2051 3.91928 14.635 4.14594C14.7717 4.2202 14.9398 4.20847 15.0648 4.11077L16.0418 3.35262C16.5108 2.98918 17.1791 3.03217 17.6011 3.45032L18.5586 4.40778C18.9806 4.82984 19.0197 5.49811 18.6563 5.96707L17.8981 6.94406C17.8043 7.06912 17.7887 7.23716 17.863 7.37394C18.0896 7.80382 18.2772 8.25715 18.4179 8.7222C18.4648 8.8707 18.5899 8.98013 18.7462 8.99967L19.9733 9.15599C20.5634 9.23024 21.005 9.73437 21.005 10.3284V11.6805C21.0089 12.2746 20.5673 12.7787 19.9772 12.8529ZM20.2195 10.3284C20.2195 10.1291 20.071 9.96494 19.8756 9.93758L18.6485 9.78126C18.1873 9.72264 17.8043 9.39828 17.6676 8.95277C17.5386 8.53462 17.3706 8.12818 17.1673 7.74129C16.9485 7.33095 16.9915 6.82683 17.2768 6.45947L18.0349 5.48248C18.1561 5.32616 18.1443 5.1034 18.0037 4.96272L17.0423 4.00916C16.9016 3.86848 16.6788 3.85675 16.5225 3.9779L15.5455 4.73605C15.1782 5.02133 14.674 5.06432 14.2637 4.84547C13.8768 4.64226 13.4704 4.47422 13.0522 4.34525C12.6067 4.20847 12.2824 3.82549 12.2237 3.36435L12.0674 2.13724C12.0401 1.94184 11.8759 1.79334 11.6766 1.79334H10.3245C10.1252 1.79334 9.96102 1.94184 9.93366 2.13724L9.77734 3.36435C9.71872 3.82549 9.39436 4.20847 8.94885 4.34525C8.53069 4.47422 8.12426 4.64226 7.74128 4.84547C7.33094 5.06432 6.82681 5.02133 6.45946 4.73605L5.48246 3.9779C5.32614 3.85675 5.10339 3.86848 4.9627 4.00916L4.00915 4.96662C3.86846 5.10731 3.85674 5.33006 3.97789 5.48638L4.73604 6.46338C5.02132 6.83073 5.06431 7.33486 4.84546 7.7452C4.64224 8.13209 4.4742 8.53852 4.34524 8.95668C4.20846 9.40219 3.82547 9.72655 3.36433 9.78517L2.14113 9.94149C1.94573 9.96885 1.79723 10.133 1.79723 10.3323V11.6845C1.79723 11.8838 1.94573 12.0479 2.14113 12.0753L3.36824 12.2316C3.82938 12.2902 4.21237 12.6146 4.34915 13.0601C4.47811 13.4782 4.64615 13.8807 4.84937 14.2676C5.06821 14.678 5.02523 15.1821 4.73994 15.5495L3.98179 16.5264C3.86065 16.6828 3.87237 16.9055 4.01306 17.0462L4.96661 17.9998C5.1073 18.1404 5.33005 18.1522 5.48637 18.031L6.46337 17.2729C6.83072 16.9876 7.33485 16.9446 7.74519 17.1635C8.13208 17.3667 8.53851 17.5347 8.95275 17.6637C9.39826 17.8005 9.72263 18.1834 9.78125 18.6446L9.93757 19.8717C9.96492 20.0671 10.1291 20.2156 10.3284 20.2156H11.6805C11.8798 20.2156 12.044 20.0671 12.0713 19.8717L12.2276 18.6446C12.2863 18.1834 12.6106 17.8005 13.0561 17.6637C13.4743 17.5347 13.8768 17.3667 14.2637 17.1635C14.674 16.9446 15.1782 16.9876 15.5455 17.2729L16.5225 18.031C16.6788 18.1522 16.9016 18.1404 17.0423 17.9998L17.9997 17.0423C18.1404 16.9016 18.1522 16.6789 18.031 16.5225L17.2729 15.5455C16.9876 15.1782 16.9446 14.6741 17.1634 14.2637C17.3667 13.8768 17.5347 13.4704 17.6637 13.0562C17.8004 12.6106 18.1834 12.2863 18.6446 12.2277L19.8717 12.0713C20.0671 12.044 20.2156 11.8799 20.2156 11.6805L20.2195 10.3284ZM11.0044 14.8656C8.87069 14.8656 7.14336 13.1382 7.14336 11.0045C7.14336 8.8707 8.87069 7.14337 11.0044 7.14337C13.1382 7.14337 14.8655 8.8707 14.8655 11.0045C14.8616 13.1343 13.1343 14.8616 11.0044 14.8656ZM11.0044 7.93279C9.30838 7.93279 7.93277 9.3084 7.93277 11.0045C7.93277 12.7005 9.30838 14.0761 11.0044 14.0761C12.7005 14.0761 14.0761 12.7005 14.0761 11.0045C14.0761 9.3084 12.7005 7.93279 11.0044 7.93279Z"/>
</mask>
<path d="M19.9772 12.8529L18.7501 13.0093C18.5938 13.0288 18.4687 13.1382 18.4218 13.2867C18.2772 13.7518 18.0896 14.2051 17.863 14.635C17.7887 14.7718 17.8004 14.9398 17.8981 15.0649L18.6563 16.0419C19.0197 16.5108 18.9767 17.1791 18.5586 17.6011L17.6011 18.5547C17.1791 18.9768 16.5108 19.0197 16.0418 18.6563L15.0648 17.8982C14.9398 17.8044 14.7717 17.7887 14.635 17.863C14.2051 18.0896 13.7518 18.2772 13.2867 18.4218C13.1382 18.4687 13.0288 18.5938 13.0092 18.7501L12.8529 19.9772C12.7748 20.5634 12.2745 21.0089 11.6805 21.0089H10.3284C9.73435 21.0089 9.23022 20.5673 9.15597 19.9772L8.99965 18.7501C8.98011 18.5938 8.87069 18.4687 8.72218 18.4218C8.25713 18.2772 7.80381 18.0896 7.37393 17.863C7.23715 17.7887 7.0691 17.8005 6.94405 17.8982L5.96705 18.6563C5.49809 19.0197 4.82983 18.9768 4.40776 18.5586L3.45422 17.6011C3.03215 17.1791 2.98917 16.5108 3.35261 16.0419L4.11076 15.0649C4.20455 14.9398 4.22018 14.7718 4.14593 14.635C3.91927 14.2051 3.73168 13.7518 3.58709 13.2867C3.54019 13.1382 3.41514 13.0288 3.25882 13.0093L2.03171 12.8529C1.44551 12.7748 1 12.2746 1 11.6805V10.3284C1 9.73437 1.4416 9.23024 2.03171 9.15599L3.25882 8.99967C3.41514 8.98013 3.54019 8.8707 3.58709 8.7222C3.73168 8.25715 3.91927 7.80382 4.14593 7.37394C4.22018 7.23716 4.20846 7.06912 4.11076 6.94406L3.35261 5.96707C2.98917 5.49811 3.03215 4.82984 3.45031 4.40778L4.40776 3.45032C4.82983 3.02826 5.49809 2.98918 5.96705 3.35262L6.94405 4.11077C7.0691 4.20457 7.23715 4.2202 7.37393 4.14594C7.80381 3.91928 8.25713 3.7317 8.72218 3.5871C8.87069 3.54021 8.98011 3.41515 8.99965 3.25883L9.15597 2.03172C9.23022 1.44162 9.73435 1.00002 10.3284 1.00002H11.6805C12.2745 1.00002 12.7787 1.44162 12.8529 2.03172L13.0092 3.25883C13.0288 3.41515 13.1382 3.54021 13.2867 3.5871C13.7518 3.7317 14.2051 3.91928 14.635 4.14594C14.7717 4.2202 14.9398 4.20847 15.0648 4.11077L16.0418 3.35262C16.5108 2.98918 17.1791 3.03217 17.6011 3.45032L18.5586 4.40778C18.9806 4.82984 19.0197 5.49811 18.6563 5.96707L17.8981 6.94406C17.8043 7.06912 17.7887 7.23716 17.863 7.37394C18.0896 7.80382 18.2772 8.25715 18.4179 8.7222C18.4648 8.8707 18.5899 8.98013 18.7462 8.99967L19.9733 9.15599C20.5634 9.23024 21.005 9.73437 21.005 10.3284V11.6805C21.0089 12.2746 20.5673 12.7787 19.9772 12.8529ZM20.2195 10.3284C20.2195 10.1291 20.071 9.96494 19.8756 9.93758L18.6485 9.78126C18.1873 9.72264 17.8043 9.39828 17.6676 8.95277C17.5386 8.53462 17.3706 8.12818 17.1673 7.74129C16.9485 7.33095 16.9915 6.82683 17.2768 6.45947L18.0349 5.48248C18.1561 5.32616 18.1443 5.1034 18.0037 4.96272L17.0423 4.00916C16.9016 3.86848 16.6788 3.85675 16.5225 3.9779L15.5455 4.73605C15.1782 5.02133 14.674 5.06432 14.2637 4.84547C13.8768 4.64226 13.4704 4.47422 13.0522 4.34525C12.6067 4.20847 12.2824 3.82549 12.2237 3.36435L12.0674 2.13724C12.0401 1.94184 11.8759 1.79334 11.6766 1.79334H10.3245C10.1252 1.79334 9.96102 1.94184 9.93366 2.13724L9.77734 3.36435C9.71872 3.82549 9.39436 4.20847 8.94885 4.34525C8.53069 4.47422 8.12426 4.64226 7.74128 4.84547C7.33094 5.06432 6.82681 5.02133 6.45946 4.73605L5.48246 3.9779C5.32614 3.85675 5.10339 3.86848 4.9627 4.00916L4.00915 4.96662C3.86846 5.10731 3.85674 5.33006 3.97789 5.48638L4.73604 6.46338C5.02132 6.83073 5.06431 7.33486 4.84546 7.7452C4.64224 8.13209 4.4742 8.53852 4.34524 8.95668C4.20846 9.40219 3.82547 9.72655 3.36433 9.78517L2.14113 9.94149C1.94573 9.96885 1.79723 10.133 1.79723 10.3323V11.6845C1.79723 11.8838 1.94573 12.0479 2.14113 12.0753L3.36824 12.2316C3.82938 12.2902 4.21237 12.6146 4.34915 13.0601C4.47811 13.4782 4.64615 13.8807 4.84937 14.2676C5.06821 14.678 5.02523 15.1821 4.73994 15.5495L3.98179 16.5264C3.86065 16.6828 3.87237 16.9055 4.01306 17.0462L4.96661 17.9998C5.1073 18.1404 5.33005 18.1522 5.48637 18.031L6.46337 17.2729C6.83072 16.9876 7.33485 16.9446 7.74519 17.1635C8.13208 17.3667 8.53851 17.5347 8.95275 17.6637C9.39826 17.8005 9.72263 18.1834 9.78125 18.6446L9.93757 19.8717C9.96492 20.0671 10.1291 20.2156 10.3284 20.2156H11.6805C11.8798 20.2156 12.044 20.0671 12.0713 19.8717L12.2276 18.6446C12.2863 18.1834 12.6106 17.8005 13.0561 17.6637C13.4743 17.5347 13.8768 17.3667 14.2637 17.1635C14.674 16.9446 15.1782 16.9876 15.5455 17.2729L16.5225 18.031C16.6788 18.1522 16.9016 18.1404 17.0423 17.9998L17.9997 17.0423C18.1404 16.9016 18.1522 16.6789 18.031 16.5225L17.2729 15.5455C16.9876 15.1782 16.9446 14.6741 17.1634 14.2637C17.3667 13.8768 17.5347 13.4704 17.6637 13.0562C17.8004 12.6106 18.1834 12.2863 18.6446 12.2277L19.8717 12.0713C20.0671 12.044 20.2156 11.8799 20.2156 11.6805L20.2195 10.3284ZM11.0044 14.8656C8.87069 14.8656 7.14336 13.1382 7.14336 11.0045C7.14336 8.8707 8.87069 7.14337 11.0044 7.14337C13.1382 7.14337 14.8655 8.8707 14.8655 11.0045C14.8616 13.1343 13.1343 14.8616 11.0044 14.8656ZM11.0044 7.93279C9.30838 7.93279 7.93277 9.3084 7.93277 11.0045C7.93277 12.7005 9.30838 14.0761 11.0044 14.0761C12.7005 14.0761 14.0761 12.7005 14.0761 11.0045C14.0761 9.3084 12.7005 7.93279 11.0044 7.93279Z" fill="#464646"/>
<path d="M19.9772 12.8529L18.7501 13.0093C18.5938 13.0288 18.4687 13.1382 18.4218 13.2867C18.2772 13.7518 18.0896 14.2051 17.863 14.635C17.7887 14.7718 17.8004 14.9398 17.8981 15.0649L18.6563 16.0419C19.0197 16.5108 18.9767 17.1791 18.5586 17.6011L17.6011 18.5547C17.1791 18.9768 16.5108 19.0197 16.0418 18.6563L15.0648 17.8982C14.9398 17.8044 14.7717 17.7887 14.635 17.863C14.2051 18.0896 13.7518 18.2772 13.2867 18.4218C13.1382 18.4687 13.0288 18.5938 13.0092 18.7501L12.8529 19.9772C12.7748 20.5634 12.2745 21.0089 11.6805 21.0089H10.3284C9.73435 21.0089 9.23022 20.5673 9.15597 19.9772L8.99965 18.7501C8.98011 18.5938 8.87069 18.4687 8.72218 18.4218C8.25713 18.2772 7.80381 18.0896 7.37393 17.863C7.23715 17.7887 7.0691 17.8005 6.94405 17.8982L5.96705 18.6563C5.49809 19.0197 4.82983 18.9768 4.40776 18.5586L3.45422 17.6011C3.03215 17.1791 2.98917 16.5108 3.35261 16.0419L4.11076 15.0649C4.20455 14.9398 4.22018 14.7718 4.14593 14.635C3.91927 14.2051 3.73168 13.7518 3.58709 13.2867C3.54019 13.1382 3.41514 13.0288 3.25882 13.0093L2.03171 12.8529C1.44551 12.7748 1 12.2746 1 11.6805V10.3284C1 9.73437 1.4416 9.23024 2.03171 9.15599L3.25882 8.99967C3.41514 8.98013 3.54019 8.8707 3.58709 8.7222C3.73168 8.25715 3.91927 7.80382 4.14593 7.37394C4.22018 7.23716 4.20846 7.06912 4.11076 6.94406L3.35261 5.96707C2.98917 5.49811 3.03215 4.82984 3.45031 4.40778L4.40776 3.45032C4.82983 3.02826 5.49809 2.98918 5.96705 3.35262L6.94405 4.11077C7.0691 4.20457 7.23715 4.2202 7.37393 4.14594C7.80381 3.91928 8.25713 3.7317 8.72218 3.5871C8.87069 3.54021 8.98011 3.41515 8.99965 3.25883L9.15597 2.03172C9.23022 1.44162 9.73435 1.00002 10.3284 1.00002H11.6805C12.2745 1.00002 12.7787 1.44162 12.8529 2.03172L13.0092 3.25883C13.0288 3.41515 13.1382 3.54021 13.2867 3.5871C13.7518 3.7317 14.2051 3.91928 14.635 4.14594C14.7717 4.2202 14.9398 4.20847 15.0648 4.11077L16.0418 3.35262C16.5108 2.98918 17.1791 3.03217 17.6011 3.45032L18.5586 4.40778C18.9806 4.82984 19.0197 5.49811 18.6563 5.96707L17.8981 6.94406C17.8043 7.06912 17.7887 7.23716 17.863 7.37394C18.0896 7.80382 18.2772 8.25715 18.4179 8.7222C18.4648 8.8707 18.5899 8.98013 18.7462 8.99967L19.9733 9.15599C20.5634 9.23024 21.005 9.73437 21.005 10.3284V11.6805C21.0089 12.2746 20.5673 12.7787 19.9772 12.8529ZM20.2195 10.3284C20.2195 10.1291 20.071 9.96494 19.8756 9.93758L18.6485 9.78126C18.1873 9.72264 17.8043 9.39828 17.6676 8.95277C17.5386 8.53462 17.3706 8.12818 17.1673 7.74129C16.9485 7.33095 16.9915 6.82683 17.2768 6.45947L18.0349 5.48248C18.1561 5.32616 18.1443 5.1034 18.0037 4.96272L17.0423 4.00916C16.9016 3.86848 16.6788 3.85675 16.5225 3.9779L15.5455 4.73605C15.1782 5.02133 14.674 5.06432 14.2637 4.84547C13.8768 4.64226 13.4704 4.47422 13.0522 4.34525C12.6067 4.20847 12.2824 3.82549 12.2237 3.36435L12.0674 2.13724C12.0401 1.94184 11.8759 1.79334 11.6766 1.79334H10.3245C10.1252 1.79334 9.96102 1.94184 9.93366 2.13724L9.77734 3.36435C9.71872 3.82549 9.39436 4.20847 8.94885 4.34525C8.53069 4.47422 8.12426 4.64226 7.74128 4.84547C7.33094 5.06432 6.82681 5.02133 6.45946 4.73605L5.48246 3.9779C5.32614 3.85675 5.10339 3.86848 4.9627 4.00916L4.00915 4.96662C3.86846 5.10731 3.85674 5.33006 3.97789 5.48638L4.73604 6.46338C5.02132 6.83073 5.06431 7.33486 4.84546 7.7452C4.64224 8.13209 4.4742 8.53852 4.34524 8.95668C4.20846 9.40219 3.82547 9.72655 3.36433 9.78517L2.14113 9.94149C1.94573 9.96885 1.79723 10.133 1.79723 10.3323V11.6845C1.79723 11.8838 1.94573 12.0479 2.14113 12.0753L3.36824 12.2316C3.82938 12.2902 4.21237 12.6146 4.34915 13.0601C4.47811 13.4782 4.64615 13.8807 4.84937 14.2676C5.06821 14.678 5.02523 15.1821 4.73994 15.5495L3.98179 16.5264C3.86065 16.6828 3.87237 16.9055 4.01306 17.0462L4.96661 17.9998C5.1073 18.1404 5.33005 18.1522 5.48637 18.031L6.46337 17.2729C6.83072 16.9876 7.33485 16.9446 7.74519 17.1635C8.13208 17.3667 8.53851 17.5347 8.95275 17.6637C9.39826 17.8005 9.72263 18.1834 9.78125 18.6446L9.93757 19.8717C9.96492 20.0671 10.1291 20.2156 10.3284 20.2156H11.6805C11.8798 20.2156 12.044 20.0671 12.0713 19.8717L12.2276 18.6446C12.2863 18.1834 12.6106 17.8005 13.0561 17.6637C13.4743 17.5347 13.8768 17.3667 14.2637 17.1635C14.674 16.9446 15.1782 16.9876 15.5455 17.2729L16.5225 18.031C16.6788 18.1522 16.9016 18.1404 17.0423 17.9998L17.9997 17.0423C18.1404 16.9016 18.1522 16.6789 18.031 16.5225L17.2729 15.5455C16.9876 15.1782 16.9446 14.6741 17.1634 14.2637C17.3667 13.8768 17.5347 13.4704 17.6637 13.0562C17.8004 12.6106 18.1834 12.2863 18.6446 12.2277L19.8717 12.0713C20.0671 12.044 20.2156 11.8799 20.2156 11.6805L20.2195 10.3284ZM11.0044 14.8656C8.87069 14.8656 7.14336 13.1382 7.14336 11.0045C7.14336 8.8707 8.87069 7.14337 11.0044 7.14337C13.1382 7.14337 14.8655 8.8707 14.8655 11.0045C14.8616 13.1343 13.1343 14.8616 11.0044 14.8656ZM11.0044 7.93279C9.30838 7.93279 7.93277 9.3084 7.93277 11.0045C7.93277 12.7005 9.30838 14.0761 11.0044 14.0761C12.7005 14.0761 14.0761 12.7005 14.0761 11.0045C14.0761 9.3084 12.7005 7.93279 11.0044 7.93279Z" stroke="#464646" stroke-width="0.6" mask="url(#path-1-outside-1_42_7620)"/>
</svg>
