<svg width="93" height="22" viewBox="0 0 93 22" fill="none" xmlns="http://www.w3.org/2000/svg">
<path d="M92.3943 21H86.6953V15.465H92.3943V21Z" fill="#A31C72"/>
<path d="M75.6735 18.12C78.6735 18.12 81.0735 16.02 81.0735 11.31C81.0735 6.59998 79.1535 4.10998 75.6735 4.10998C72.1635 4.10998 70.2135 6.59998 70.2135 11.31C70.2135 16.02 72.2235 18.12 75.6735 18.12ZM75.6735 21.69C69.5535 21.69 66.1035 17.94 66.1035 11.22C66.1035 4.46998 69.5535 0.419983 75.6735 0.419983C81.7935 0.419983 85.1835 4.46998 85.1835 11.31C85.1835 18.15 81.7935 21.69 75.6735 21.69Z" fill="#3F3F3F"/>
<path d="M66.5263 21H52.4863V1.08002H56.6563V17.37H66.5263V21Z" fill="#3F3F3F"/>
<path d="M51.497 21H37.457V1.08002H41.627V17.37H51.497V21Z" fill="#3F3F3F"/>
<path d="M26.6891 18.12C29.6891 18.12 32.0891 16.02 32.0891 11.31C32.0891 6.59998 30.1691 4.10998 26.6891 4.10998C23.1791 4.10998 21.2291 6.59998 21.2291 11.31C21.2291 16.02 23.2391 18.12 26.6891 18.12ZM26.6891 21.69C20.5691 21.69 17.1191 17.94 17.1191 11.22C17.1191 4.46998 20.5691 0.419983 26.6891 0.419983C32.8091 0.419983 36.1991 4.46998 36.1991 11.31C36.1991 18.15 32.8091 21.69 26.6891 21.69Z" fill="#3F3F3F"/>
<path d="M15.9297 6.95998H11.9697C11.7597 4.91998 10.5297 3.92999 8.00969 3.92999C5.66969 3.92999 4.43969 4.76998 4.43969 6.26998C4.43969 7.52998 5.30969 8.24998 7.52969 8.78998C9.77969 9.32998 11.9697 9.86998 13.4397 10.53C15.1797 11.31 16.5597 12.54 16.5597 15.36C16.5597 19.74 13.2597 21.69 8.60969 21.69C3.68969 21.69 0.269688 19.5 0.179688 15.03H4.19969C4.25969 17.07 5.96969 18.33 8.63969 18.33C11.0997 18.33 12.5097 17.28 12.5097 15.51C12.5097 14.34 11.9097 13.53 9.41969 12.99C6.95969 12.45 5.36969 12.09 3.95969 11.46C1.82969 10.5 0.629688 9.05998 0.629688 6.53998C0.629688 2.96998 3.05969 0.419983 7.91969 0.419983C12.9597 0.419983 15.7797 3.14998 15.9297 6.95998Z" fill="#3F3F3F"/>
</svg>
